<?xml version="1.0" standalone="no"?><!DOCTYPE svg PUBLIC "-//W3C//DTD SVG 1.1//EN" "http://www.w3.org/Graphics/SVG/1.1/DTD/svg11.dtd"><svg xmlns="http://www.w3.org/2000/svg" version="1.1" width="145.1px" height="28.9px" viewBox="0 -5 145.1 28.9" style="top:-5px">  <desc>200+ Providers</desc>  <defs/>  <g id="Polygon140916">    <path d="M 8.6 4.5 C 8.6 6.9 6.5 9.3 5.3 10.7 C 5.35 10.69 9.5 10.7 9.5 10.7 L 9.5 13.1 L 0.7 13.1 C 0.7 13.1 0.7 12.92 0.7 12.9 C 2.6 10.9 5.8 7.6 5.8 5.1 C 5.8 3.8 4.9 3.1 4 3.1 C 3 3.1 2 3.7 1 4.7 C 1 4.7 1 2 1 2 C 2.4 1 3.5 0.7 4.7 0.7 C 6.9 0.7 8.6 2.2 8.6 4.5 Z M 15.3 11 C 16.3 11 16.8 9.9 16.8 7 C 16.8 4.4 16.4 3 15.3 3 C 14.4 3 13.7 4.1 13.7 7 C 13.7 9.7 14.1 11 15.3 11 Z M 19.8 7 C 19.8 11.1 17.8 13.3 15.3 13.3 C 12.7 13.3 10.8 11.1 10.8 7 C 10.8 2.8 12.9 0.7 15.3 0.7 C 17.8 0.7 19.8 3 19.8 7 Z M 25.5 11 C 26.5 11 27 9.9 27 7 C 27 4.4 26.6 3 25.5 3 C 24.6 3 23.9 4.1 23.9 7 C 23.9 9.7 24.3 11 25.5 11 Z M 30 7 C 30 11.1 28 13.3 25.5 13.3 C 22.9 13.3 21 11.1 21 7 C 21 2.8 23.1 0.7 25.5 0.7 C 28 0.7 30 3 30 7 Z M 31.4 5.8 L 34.7 5.8 L 34.7 2.4 L 36.9 2.4 L 36.9 5.8 L 40.2 5.8 L 40.2 8.1 L 36.9 8.1 L 36.9 11.5 L 34.7 11.5 L 34.7 8.1 L 31.4 8.1 L 31.4 5.8 Z M 52.8 0.8 C 55.6 0.8 57.3 2.2 57.3 4.6 C 57.3 6.6 55.9 8.3 52.9 8.3 C 52.9 8.3 50.7 8.3 50.7 8.3 L 50.7 13.1 L 47.6 13.1 L 47.6 0.8 C 47.6 0.8 52.76 0.85 52.8 0.8 Z M 50.7 6.2 C 50.7 6.2 52.22 6.19 52.2 6.2 C 53.6 6.2 54.1 5.6 54.1 4.6 C 54.1 3.4 53.5 3 52.1 3 C 52.09 2.95 50.7 3 50.7 3 L 50.7 6.2 Z M 66.1 5 C 66.1 5 65 7.6 65 7.6 C 64.5 7.1 64 6.9 63.5 6.9 C 62.6 6.9 61.9 7.6 61.5 9.1 C 61.49 9.11 61.5 13.1 61.5 13.1 L 58.8 13.1 L 58.8 4.4 L 61.5 4.4 C 61.5 4.4 61.49 6.46 61.5 6.5 C 62.1 5.1 63.1 4.2 64.2 4.2 C 64.8 4.2 65.4 4.4 66.1 5 Z M 69.2 8.7 C 69.2 10.3 70 11.2 71.2 11.2 C 72.5 11.2 73.3 10.2 73.3 8.7 C 73.3 7.2 72.4 6.3 71.2 6.3 C 70 6.3 69.2 7.2 69.2 8.7 Z M 76.1 8.7 C 76.1 11.5 74.1 13.3 71.2 13.3 C 68 13.3 66.3 11.2 66.3 8.8 C 66.3 6.2 68.1 4.2 71.2 4.2 C 74.3 4.2 76.1 6.1 76.1 8.7 Z M 79.3 4.4 L 81.3 9.2 L 83.3 4.4 L 86 4.4 L 82.1 13.2 L 80.3 13.2 L 76.4 4.4 L 79.3 4.4 Z M 89.6 2.2 C 89.6 2.9 89 3.4 88.4 3.4 C 87.7 3.4 87.2 2.9 87.2 2.2 C 87.2 1.5 87.7 1 88.4 1 C 89.1 1 89.6 1.5 89.6 2.2 Z M 89.7 4.4 L 89.7 13.1 L 87 13.1 L 87 4.4 L 89.7 4.4 Z M 96.8 11 C 96.8 11.03 97.8 11 97.8 11 C 97.8 11 97.81 6.77 97.8 6.8 C 97.3 6.4 96.8 6.3 96.2 6.3 C 95.1 6.3 94.2 7.2 94.2 8.6 C 94.2 10.3 94.9 11 96.8 11 Z M 100.5 0.8 L 100.5 13.1 C 100.5 13.1 96.53 13.12 96.5 13.1 C 92.7 13.1 91.4 11.3 91.4 8.6 C 91.4 6.3 92.9 4.2 95.6 4.2 C 96.5 4.2 97.2 4.4 97.8 4.8 C 97.81 4.81 97.8 0.8 97.8 0.8 L 100.5 0.8 Z M 111.1 8.8 C 111.06 8.82 111.1 9.3 111.1 9.3 C 111.1 9.3 104.94 9.32 104.9 9.3 C 105.1 10.6 106.2 11.4 107.5 11.4 C 108.6 11.4 109.8 11.1 110.8 10.5 C 110.8 10.5 110.8 12.3 110.8 12.3 C 109.8 13 108.5 13.3 107 13.3 C 104.1 13.3 102.2 11.5 102.2 8.7 C 102.2 6 103.9 4.2 106.9 4.2 C 109.2 4.2 111.1 5.8 111.1 8.8 Z M 108.5 8 C 108.5 6.7 107.8 6 106.8 6 C 105.7 6 104.9 6.8 104.9 8 C 104.9 8 108.5 8 108.5 8 Z M 119.9 5 C 119.9 5 118.9 7.6 118.9 7.6 C 118.4 7.1 117.9 6.9 117.4 6.9 C 116.4 6.9 115.7 7.6 115.3 9.1 C 115.34 9.11 115.3 13.1 115.3 13.1 L 112.6 13.1 L 112.6 4.4 L 115.3 4.4 C 115.3 4.4 115.34 6.46 115.3 6.5 C 116 5.1 117 4.2 118 4.2 C 118.7 4.2 119.2 4.4 119.9 5 Z M 124.1 4.2 C 125.1 4.2 126.1 4.5 127 4.9 C 127 4.9 127 7 127 7 C 125.9 6.3 125.2 6.1 124.4 6.1 C 123.7 6.1 123.5 6.4 123.5 6.7 C 123.5 7 123.6 7.2 125 7.9 C 126.6 8.6 127.4 9.4 127.4 10.6 C 127.4 12.1 126.3 13.3 124.1 13.3 C 123.1 13.3 122.2 13.1 120.8 12.6 C 120.8 12.6 120.8 10.5 120.8 10.5 C 121.8 11.1 122.7 11.4 123.5 11.4 C 124.3 11.4 124.7 11.2 124.7 10.8 C 124.7 10.3 124.4 10.1 123 9.4 C 121.4 8.7 120.7 7.8 120.7 6.7 C 120.7 5.4 122 4.2 124.1 4.2 Z " stroke="none" fill="#000"/>  </g></svg>