<?xml version="1.0" standalone="no"?><!DOCTYPE svg PUBLIC "-//W3C//DTD SVG 1.1//EN" "http://www.w3.org/Graphics/SVG/1.1/DTD/svg11.dtd"><svg xmlns="http://www.w3.org/2000/svg" version="1.1" width="317px" height="43.6px" viewBox="0 -7 317 43.6" style="top:-7px">  <desc>End Point Assessment</desc>  <defs/>  <g id="Polygon107285">    <path d="M 12.6 1.3 L 12.6 3.2 L 4.3 3.2 L 4.3 9.9 L 12.3 9.9 L 12.3 11.7 L 4.3 11.7 L 4.3 18.5 L 12.8 18.5 L 12.8 20.4 L 2.2 20.4 L 2.2 1.3 L 12.6 1.3 Z M 17.9 1.3 L 31.5 17.1 L 31.5 1.3 L 33.5 1.3 L 33.5 20.4 L 31.6 20.4 L 18.2 4.7 L 18.2 20.4 L 16.2 20.4 L 16.2 1.3 L 17.9 1.3 Z M 37.8 1.3 C 37.8 1.3 44.8 1.32 44.8 1.3 C 51 1.3 55.1 5.2 55.1 10.7 C 55.1 16.6 50.9 20.4 44.8 20.4 C 44.8 20.41 37.8 20.4 37.8 20.4 L 37.8 1.3 Z M 44.8 18.5 C 49.8 18.5 52.9 15.5 52.9 10.8 C 52.9 6.2 49.9 3.2 44.5 3.2 C 44.46 3.19 39.9 3.2 39.9 3.2 L 39.9 18.5 C 39.9 18.5 44.77 18.51 44.8 18.5 Z M 65 13.1 L 65 15.1 L 58.2 15.1 L 58.2 13.1 L 65 13.1 Z M 74.1 1.3 C 77.9 1.3 80.2 3.2 80.2 6.6 C 80.2 10.1 77.8 11.8 73.7 11.8 C 73.72 11.82 70.8 11.8 70.8 11.8 L 70.8 20.4 L 68.7 20.4 L 68.7 1.3 C 68.7 1.3 74.09 1.32 74.1 1.3 Z M 70.8 10 C 70.8 10 73.67 9.97 73.7 10 C 76.9 10 78.1 8.7 78.1 6.5 C 78.1 4.4 76.8 3.2 73.7 3.2 C 73.67 3.16 70.8 3.2 70.8 3.2 L 70.8 10 Z M 102.5 10.8 C 102.5 16.1 98.6 20.7 92.3 20.7 C 86.3 20.7 82.3 16.2 82.3 11 C 82.3 5.7 86.2 1.1 92.3 1.1 C 98.4 1.1 102.5 5.5 102.5 10.8 Z M 84.5 10.9 C 84.5 15.4 88 18.7 92.3 18.7 C 98 18.7 100.3 14.3 100.3 10.8 C 100.3 7 97.4 3.1 92.5 3.1 C 87.2 3.1 84.5 7 84.5 10.9 Z M 108 1.3 L 108 20.4 L 105.9 20.4 L 105.9 1.3 L 108 1.3 Z M 114 1.3 L 127.6 17.1 L 127.6 1.3 L 129.6 1.3 L 129.6 20.4 L 127.7 20.4 L 114.3 4.7 L 114.3 20.4 L 112.3 20.4 L 112.3 1.3 L 114 1.3 Z M 147.8 1.3 L 147.8 3.2 L 141 3.2 L 141 20.4 L 138.9 20.4 L 138.9 3.2 L 132.1 3.2 L 132.1 1.3 L 147.8 1.3 Z M 165.8 1.2 L 174.3 20.4 L 172.2 20.4 L 169.5 14.4 L 160.8 14.4 L 158.2 20.4 L 156.1 20.4 L 164.3 1.2 L 165.8 1.2 Z M 161.6 12.5 L 168.6 12.5 L 165 4.4 L 161.6 12.5 Z M 185.8 2.3 C 185.8 2.3 185.8 4.7 185.8 4.7 C 184.5 3.6 183.1 3 181.5 3 C 179.5 3 178.2 4.1 178.2 5.7 C 178.2 7 178.5 8.1 181.6 9.7 C 185.6 11.7 186.5 13.1 186.5 15.7 C 186.5 18.5 184.3 20.7 181.1 20.7 C 179.3 20.7 177.6 20.1 176.1 19 C 176.1 19 176.1 16.4 176.1 16.4 C 177.5 17.9 179.2 18.8 181.1 18.8 C 183 18.8 184.4 17.6 184.4 15.7 C 184.4 14.1 183.9 13.2 180.2 11.2 C 177.2 9.7 176 8.2 176 5.8 C 176 3.1 178.4 1.1 181.5 1.1 C 183 1.1 184.5 1.5 185.8 2.3 Z M 198.7 2.3 C 198.7 2.3 198.7 4.7 198.7 4.7 C 197.3 3.6 195.9 3 194.3 3 C 192.3 3 191 4.1 191 5.7 C 191 7 191.3 8.1 194.5 9.7 C 198.4 11.7 199.4 13.1 199.4 15.7 C 199.4 18.5 197.2 20.7 193.9 20.7 C 192.1 20.7 190.4 20.1 189 19 C 189 19 189 16.4 189 16.4 C 190.4 17.9 192.1 18.8 193.9 18.8 C 195.9 18.8 197.3 17.6 197.3 15.7 C 197.3 14.1 196.7 13.2 193 11.2 C 190 9.7 188.9 8.2 188.9 5.8 C 188.9 3.1 191.2 1.1 194.4 1.1 C 195.9 1.1 197.4 1.5 198.7 2.3 Z M 213.1 1.3 L 213.1 3.2 L 204.8 3.2 L 204.8 9.9 L 212.8 9.9 L 212.8 11.7 L 204.8 11.7 L 204.8 18.5 L 213.3 18.5 L 213.3 20.4 L 202.7 20.4 L 202.7 1.3 L 213.1 1.3 Z M 225.6 2.3 C 225.6 2.3 225.6 4.7 225.6 4.7 C 224.2 3.6 222.8 3 221.3 3 C 219.2 3 217.9 4.1 217.9 5.7 C 217.9 7 218.2 8.1 221.4 9.7 C 225.3 11.7 226.3 13.1 226.3 15.7 C 226.3 18.5 224.1 20.7 220.8 20.7 C 219 20.7 217.3 20.1 215.9 19 C 215.9 19 215.9 16.4 215.9 16.4 C 217.3 17.9 219 18.8 220.8 18.8 C 222.8 18.8 224.2 17.6 224.2 15.7 C 224.2 14.1 223.6 13.2 219.9 11.2 C 216.9 9.7 215.8 8.2 215.8 5.8 C 215.8 3.1 218.1 1.1 221.3 1.1 C 222.8 1.1 224.3 1.5 225.6 2.3 Z M 238.4 2.3 C 238.4 2.3 238.4 4.7 238.4 4.7 C 237.1 3.6 235.7 3 234.1 3 C 232.1 3 230.8 4.1 230.8 5.7 C 230.8 7 231.1 8.1 234.2 9.7 C 238.2 11.7 239.1 13.1 239.1 15.7 C 239.1 18.5 237 20.7 233.7 20.7 C 231.9 20.7 230.2 20.1 228.7 19 C 228.7 19 228.7 16.4 228.7 16.4 C 230.2 17.9 231.8 18.8 233.7 18.8 C 235.6 18.8 237 17.6 237 15.7 C 237 14.1 236.5 13.2 232.8 11.2 C 229.8 9.7 228.6 8.2 228.6 5.8 C 228.6 3.1 231 1.1 234.2 1.1 C 235.6 1.1 237.1 1.5 238.4 2.3 Z M 242.4 1.3 L 244.4 1.3 L 251.2 9.7 L 257.9 1.3 L 259.9 1.3 L 259.9 20.4 L 257.8 20.4 L 257.8 4.6 L 257.7 4.6 L 251.3 12.6 L 251 12.6 L 244.6 4.6 L 244.5 4.6 L 244.5 20.4 L 242.4 20.4 L 242.4 1.3 Z M 274.6 1.3 L 274.6 3.2 L 266.3 3.2 L 266.3 9.9 L 274.3 9.9 L 274.3 11.7 L 266.3 11.7 L 266.3 18.5 L 274.8 18.5 L 274.8 20.4 L 264.2 20.4 L 264.2 1.3 L 274.6 1.3 Z M 280 1.3 L 293.5 17.1 L 293.5 1.3 L 295.5 1.3 L 295.5 20.4 L 293.7 20.4 L 280.2 4.7 L 280.2 20.4 L 278.2 20.4 L 278.2 1.3 L 280 1.3 Z M 313.7 1.3 L 313.7 3.2 L 306.9 3.2 L 306.9 20.4 L 304.8 20.4 L 304.8 3.2 L 298.1 3.2 L 298.1 1.3 L 313.7 1.3 Z " stroke="none" fill="#e4007e"/>  </g></svg>