<?xml version="1.0" standalone="no"?><!DOCTYPE svg PUBLIC "-//W3C//DTD SVG 1.1//EN" "http://www.w3.org/Graphics/SVG/1.1/DTD/svg11.dtd"><svg xmlns="http://www.w3.org/2000/svg" version="1.1" width="611px" height="38.8px" viewBox="0 -7 611 38.8" style="top:-7px">  <desc>end point assessment and so much more</desc>  <defs/>  <g id="Polygon108786">    <path d="M 8.6 12.9 C 8.6 12.9 11.7 13.5 11.7 13.5 C 11.3 14.6 10.7 15.5 9.8 16.1 C 8.9 16.7 7.8 17 6.5 17 C 4.4 17 2.9 16.3 1.9 15 C 1.1 13.9 0.7 12.5 0.7 10.9 C 0.7 8.9 1.2 7.3 2.3 6.2 C 3.3 5.1 4.6 4.5 6.2 4.5 C 8 4.5 9.4 5.1 10.4 6.3 C 11.4 7.5 11.9 9.3 11.9 11.7 C 11.9 11.7 4 11.7 4 11.7 C 4 12.6 4.2 13.4 4.7 13.9 C 5.2 14.4 5.8 14.7 6.5 14.7 C 7 14.7 7.5 14.5 7.8 14.3 C 8.1 14 8.4 13.5 8.6 12.9 Z M 8.7 9.8 C 8.7 8.8 8.5 8.2 8 7.7 C 7.6 7.2 7 7 6.4 7 C 5.7 7 5.1 7.2 4.7 7.7 C 4.2 8.2 4 8.9 4 9.8 C 4 9.8 8.7 9.8 8.7 9.8 Z M 29.7 16.7 L 26.5 16.7 C 26.5 16.7 26.51 10.66 26.5 10.7 C 26.5 9.4 26.4 8.5 26.3 8.2 C 26.2 7.8 25.9 7.5 25.6 7.3 C 25.3 7.1 25 7 24.6 7 C 24 7 23.5 7.1 23.1 7.4 C 22.6 7.7 22.3 8.1 22.2 8.6 C 22 9.1 21.9 10 21.9 11.3 C 21.95 11.34 21.9 16.7 21.9 16.7 L 18.8 16.7 L 18.8 4.8 L 21.7 4.8 C 21.7 4.8 21.72 6.57 21.7 6.6 C 22.8 5.2 24.1 4.5 25.7 4.5 C 26.3 4.5 27 4.7 27.6 4.9 C 28.1 5.2 28.6 5.5 28.9 5.9 C 29.2 6.3 29.4 6.7 29.5 7.2 C 29.6 7.7 29.7 8.4 29.7 9.3 C 29.66 9.33 29.7 16.7 29.7 16.7 Z M 48.2 16.7 L 45.2 16.7 C 45.2 16.7 45.24 14.99 45.2 15 C 44.8 15.7 44.2 16.2 43.5 16.5 C 42.9 16.8 42.2 17 41.5 17 C 40.1 17 39 16.5 38 15.4 C 37 14.3 36.5 12.7 36.5 10.7 C 36.5 8.7 37 7.2 38 6.1 C 38.9 5.1 40.1 4.5 41.6 4.5 C 42.9 4.5 44 5.1 45 6.2 C 45.01 6.21 45 0.3 45 0.3 L 48.2 0.3 L 48.2 16.7 Z M 39.7 10.5 C 39.7 11.8 39.9 12.7 40.3 13.3 C 40.8 14.1 41.5 14.5 42.4 14.5 C 43.1 14.5 43.8 14.2 44.3 13.6 C 44.8 13 45 12.1 45 10.8 C 45 9.5 44.8 8.5 44.3 7.9 C 43.8 7.3 43.2 7 42.4 7 C 41.6 7 41 7.3 40.5 7.9 C 40 8.5 39.7 9.3 39.7 10.5 Z M 55.3 12.4 L 55.3 9.2 L 61.5 9.2 L 61.5 12.4 L 55.3 12.4 Z M 67.6 4.8 L 70.5 4.8 C 70.5 4.8 70.53 6.57 70.5 6.6 C 70.9 6 71.4 5.5 72.1 5.1 C 72.7 4.7 73.5 4.5 74.3 4.5 C 75.6 4.5 76.8 5.1 77.8 6.2 C 78.7 7.3 79.2 8.8 79.2 10.7 C 79.2 12.7 78.7 14.3 77.8 15.4 C 76.8 16.5 75.6 17 74.2 17 C 73.6 17 73 16.9 72.4 16.6 C 71.9 16.4 71.3 15.9 70.7 15.3 C 70.75 15.27 70.7 21.3 70.7 21.3 L 67.6 21.3 L 67.6 4.8 Z M 70.7 10.6 C 70.7 11.9 71 12.9 71.5 13.5 C 72 14.2 72.7 14.5 73.5 14.5 C 74.2 14.5 74.8 14.2 75.3 13.6 C 75.8 13 76 12.1 76 10.7 C 76 9.5 75.8 8.6 75.3 8 C 74.8 7.3 74.1 7 73.4 7 C 72.6 7 72 7.3 71.5 7.9 C 71 8.5 70.7 9.4 70.7 10.6 Z M 85.4 10.6 C 85.4 9.6 85.6 8.6 86.1 7.6 C 86.7 6.6 87.4 5.8 88.3 5.3 C 89.3 4.8 90.3 4.5 91.5 4.5 C 93.3 4.5 94.8 5.1 95.9 6.3 C 97.1 7.5 97.7 9 97.7 10.7 C 97.7 12.6 97.1 14 95.9 15.2 C 94.8 16.4 93.3 17 91.5 17 C 90.4 17 89.4 16.8 88.4 16.3 C 87.4 15.8 86.7 15.1 86.1 14.1 C 85.6 13.1 85.4 12 85.4 10.6 Z M 88.6 10.8 C 88.6 12 88.9 12.9 89.4 13.5 C 90 14.1 90.7 14.4 91.5 14.4 C 92.3 14.4 93 14.1 93.6 13.5 C 94.2 12.9 94.4 12 94.4 10.8 C 94.4 9.6 94.2 8.7 93.6 8.1 C 93 7.4 92.3 7.1 91.5 7.1 C 90.7 7.1 90 7.4 89.4 8.1 C 88.9 8.7 88.6 9.6 88.6 10.8 Z M 104.5 3.2 L 104.5 0.3 L 107.7 0.3 L 107.7 3.2 L 104.5 3.2 Z M 104.5 16.7 L 104.5 4.8 L 107.7 4.8 L 107.7 16.7 L 104.5 16.7 Z M 126.1 16.7 L 123 16.7 C 123 16.7 122.97 10.66 123 10.7 C 123 9.4 122.9 8.5 122.8 8.2 C 122.6 7.8 122.4 7.5 122.1 7.3 C 121.8 7.1 121.4 7 121 7 C 120.5 7 120 7.1 119.5 7.4 C 119.1 7.7 118.8 8.1 118.7 8.6 C 118.5 9.1 118.4 10 118.4 11.3 C 118.41 11.34 118.4 16.7 118.4 16.7 L 115.3 16.7 L 115.3 4.8 L 118.2 4.8 C 118.2 4.8 118.19 6.57 118.2 6.6 C 119.2 5.2 120.5 4.5 122.1 4.5 C 122.8 4.5 123.5 4.7 124 4.9 C 124.6 5.2 125 5.5 125.3 5.9 C 125.6 6.3 125.8 6.7 126 7.2 C 126.1 7.7 126.1 8.4 126.1 9.3 C 126.13 9.33 126.1 16.7 126.1 16.7 Z M 139.2 4.8 L 139.2 7.3 L 137 7.3 C 137 7.3 137.01 12.14 137 12.1 C 137 13.1 137 13.7 137.1 13.8 C 137.1 14 137.2 14.1 137.4 14.2 C 137.5 14.3 137.7 14.4 137.9 14.4 C 138.2 14.4 138.6 14.3 139.2 14.1 C 139.2 14.1 139.4 16.5 139.4 16.5 C 138.7 16.9 137.9 17 136.9 17 C 136.4 17 135.9 16.9 135.4 16.7 C 134.9 16.5 134.6 16.3 134.4 16 C 134.2 15.7 134 15.3 133.9 14.8 C 133.9 14.4 133.8 13.6 133.8 12.5 C 133.84 12.53 133.8 7.3 133.8 7.3 L 132.4 7.3 L 132.4 4.8 L 133.8 4.8 L 133.8 2.4 L 137 0.6 L 137 4.8 L 139.2 4.8 Z M 158.8 8.5 C 158.8 8.5 156 7.9 156 7.9 C 156.3 6.8 156.9 5.9 157.6 5.4 C 158.4 4.8 159.6 4.5 161.1 4.5 C 162.6 4.5 163.6 4.7 164.3 5 C 165 5.4 165.5 5.8 165.7 6.3 C 166 6.8 166.2 7.8 166.2 9.1 C 166.2 9.1 166.1 12.8 166.1 12.8 C 166.1 13.9 166.2 14.6 166.3 15.1 C 166.4 15.6 166.6 16.2 166.9 16.7 C 166.9 16.7 163.7 16.7 163.7 16.7 C 163.6 16.5 163.5 16.2 163.4 15.8 C 163.4 15.6 163.3 15.5 163.3 15.4 C 162.8 16 162.2 16.4 161.6 16.6 C 161 16.9 160.3 17 159.6 17 C 158.4 17 157.4 16.7 156.7 16 C 156 15.3 155.7 14.5 155.7 13.5 C 155.7 12.8 155.8 12.2 156.1 11.7 C 156.5 11.2 156.9 10.8 157.5 10.5 C 158.1 10.2 158.9 9.9 160 9.7 C 161.5 9.5 162.5 9.2 163.1 9 C 163.1 9 163.1 8.6 163.1 8.6 C 163.1 8 162.9 7.6 162.6 7.4 C 162.3 7.1 161.8 7 160.9 7 C 160.4 7 159.9 7.1 159.6 7.3 C 159.3 7.5 159 7.9 158.8 8.5 Z M 163.1 11 C 162.7 11.2 162 11.3 161.1 11.5 C 160.3 11.7 159.7 11.9 159.4 12.1 C 159 12.3 158.8 12.7 158.8 13.2 C 158.8 13.6 159 14 159.3 14.3 C 159.6 14.6 160.1 14.8 160.6 14.8 C 161.1 14.8 161.7 14.6 162.2 14.2 C 162.6 13.9 162.8 13.6 162.9 13.2 C 163 12.9 163.1 12.4 163.1 11.6 C 163.1 11.6 163.1 11 163.1 11 Z M 172.5 13.3 C 172.5 13.3 175.7 12.9 175.7 12.9 C 175.8 13.5 176.1 13.9 176.5 14.3 C 176.9 14.6 177.5 14.7 178.3 14.7 C 179.1 14.7 179.7 14.6 180.1 14.3 C 180.4 14.1 180.5 13.8 180.5 13.4 C 180.5 13.2 180.4 13 180.3 12.8 C 180.1 12.7 179.8 12.6 179.2 12.4 C 176.7 11.9 175.1 11.4 174.4 10.9 C 173.4 10.2 173 9.4 173 8.2 C 173 7.2 173.4 6.3 174.2 5.6 C 175 4.9 176.3 4.5 178 4.5 C 179.6 4.5 180.8 4.8 181.6 5.3 C 182.4 5.9 183 6.7 183.3 7.7 C 183.3 7.7 180.3 8.3 180.3 8.3 C 180.2 7.8 179.9 7.4 179.6 7.2 C 179.2 6.9 178.7 6.8 178.1 6.8 C 177.2 6.8 176.6 6.9 176.3 7.2 C 176 7.3 175.9 7.5 175.9 7.8 C 175.9 8 176 8.2 176.2 8.4 C 176.5 8.6 177.5 8.9 179.2 9.3 C 180.8 9.6 182 10.1 182.7 10.7 C 183.3 11.2 183.7 12 183.7 13 C 183.7 14.1 183.2 15 182.3 15.8 C 181.4 16.6 180 17 178.3 17 C 176.6 17 175.3 16.7 174.4 16 C 173.4 15.4 172.8 14.5 172.5 13.3 Z M 189.7 13.3 C 189.7 13.3 192.9 12.9 192.9 12.9 C 193 13.5 193.3 13.9 193.7 14.3 C 194.1 14.6 194.7 14.7 195.4 14.7 C 196.2 14.7 196.8 14.6 197.3 14.3 C 197.5 14.1 197.7 13.8 197.7 13.4 C 197.7 13.2 197.6 13 197.4 12.8 C 197.3 12.7 196.9 12.6 196.4 12.4 C 193.8 11.9 192.2 11.4 191.6 10.9 C 190.6 10.2 190.1 9.4 190.1 8.2 C 190.1 7.2 190.5 6.3 191.4 5.6 C 192.2 4.9 193.4 4.5 195.2 4.5 C 196.8 4.5 198 4.8 198.8 5.3 C 199.6 5.9 200.1 6.7 200.4 7.7 C 200.4 7.7 197.5 8.3 197.5 8.3 C 197.3 7.8 197.1 7.4 196.7 7.2 C 196.4 6.9 195.9 6.8 195.2 6.8 C 194.4 6.8 193.8 6.9 193.4 7.2 C 193.2 7.3 193.1 7.5 193.1 7.8 C 193.1 8 193.2 8.2 193.4 8.4 C 193.7 8.6 194.6 8.9 196.3 9.3 C 198 9.6 199.2 10.1 199.9 10.7 C 200.5 11.2 200.8 12 200.8 13 C 200.8 14.1 200.4 15 199.5 15.8 C 198.6 16.6 197.2 17 195.4 17 C 193.8 17 192.5 16.7 191.6 16 C 190.6 15.4 190 14.5 189.7 13.3 Z M 214.9 12.9 C 214.9 12.9 218 13.5 218 13.5 C 217.6 14.6 217 15.5 216.1 16.1 C 215.2 16.7 214.1 17 212.8 17 C 210.8 17 209.2 16.3 208.2 15 C 207.4 13.9 207.1 12.5 207.1 10.9 C 207.1 8.9 207.6 7.3 208.6 6.2 C 209.6 5.1 210.9 4.5 212.5 4.5 C 214.3 4.5 215.7 5.1 216.7 6.3 C 217.7 7.5 218.2 9.3 218.2 11.7 C 218.2 11.7 210.3 11.7 210.3 11.7 C 210.3 12.6 210.6 13.4 211 13.9 C 211.5 14.4 212.1 14.7 212.9 14.7 C 213.4 14.7 213.8 14.5 214.1 14.3 C 214.5 14 214.7 13.5 214.9 12.9 Z M 215.1 9.8 C 215 8.8 214.8 8.2 214.4 7.7 C 213.9 7.2 213.4 7 212.7 7 C 212 7 211.5 7.2 211 7.7 C 210.6 8.2 210.3 8.9 210.3 9.8 C 210.3 9.8 215.1 9.8 215.1 9.8 Z M 224 13.3 C 224 13.3 227.2 12.9 227.2 12.9 C 227.3 13.5 227.6 13.9 228 14.3 C 228.4 14.6 229 14.7 229.7 14.7 C 230.6 14.7 231.2 14.6 231.6 14.3 C 231.9 14.1 232 13.8 232 13.4 C 232 13.2 231.9 13 231.8 12.8 C 231.6 12.7 231.3 12.6 230.7 12.4 C 228.2 11.9 226.6 11.4 225.9 10.9 C 224.9 10.2 224.5 9.4 224.5 8.2 C 224.5 7.2 224.9 6.3 225.7 5.6 C 226.5 4.9 227.8 4.5 229.5 4.5 C 231.1 4.5 232.3 4.8 233.1 5.3 C 233.9 5.9 234.5 6.7 234.8 7.7 C 234.8 7.7 231.8 8.3 231.8 8.3 C 231.7 7.8 231.4 7.4 231.1 7.2 C 230.7 6.9 230.2 6.8 229.5 6.8 C 228.7 6.8 228.1 6.9 227.8 7.2 C 227.5 7.3 227.4 7.5 227.4 7.8 C 227.4 8 227.5 8.2 227.7 8.4 C 228 8.6 229 8.9 230.7 9.3 C 232.3 9.6 233.5 10.1 234.2 10.7 C 234.8 11.2 235.2 12 235.2 13 C 235.2 14.1 234.7 15 233.8 15.8 C 232.9 16.6 231.5 17 229.7 17 C 228.1 17 226.8 16.7 225.9 16 C 224.9 15.4 224.3 14.5 224 13.3 Z M 241.2 13.3 C 241.2 13.3 244.4 12.9 244.4 12.9 C 244.5 13.5 244.8 13.9 245.2 14.3 C 245.6 14.6 246.2 14.7 246.9 14.7 C 247.7 14.7 248.3 14.6 248.7 14.3 C 249 14.1 249.2 13.8 249.2 13.4 C 249.2 13.2 249.1 13 248.9 12.8 C 248.8 12.7 248.4 12.6 247.9 12.4 C 245.3 11.9 243.7 11.4 243 10.9 C 242.1 10.2 241.6 9.4 241.6 8.2 C 241.6 7.2 242 6.3 242.8 5.6 C 243.7 4.9 244.9 4.5 246.6 4.5 C 248.3 4.5 249.5 4.8 250.3 5.3 C 251.1 5.9 251.6 6.7 251.9 7.7 C 251.9 7.7 248.9 8.3 248.9 8.3 C 248.8 7.8 248.6 7.4 248.2 7.2 C 247.9 6.9 247.4 6.8 246.7 6.8 C 245.9 6.8 245.3 6.9 244.9 7.2 C 244.7 7.3 244.6 7.5 244.6 7.8 C 244.6 8 244.7 8.2 244.9 8.4 C 245.2 8.6 246.1 8.9 247.8 9.3 C 249.5 9.6 250.7 10.1 251.3 10.7 C 252 11.2 252.3 12 252.3 13 C 252.3 14.1 251.9 15 251 15.8 C 250 16.6 248.7 17 246.9 17 C 245.3 17 244 16.7 243 16 C 242.1 15.4 241.5 14.5 241.2 13.3 Z M 259.2 4.8 L 262.1 4.8 C 262.1 4.8 262.13 6.45 262.1 6.4 C 263.2 5.2 264.4 4.5 265.8 4.5 C 266.6 4.5 267.3 4.7 267.8 5 C 268.4 5.3 268.9 5.8 269.2 6.4 C 269.7 5.8 270.3 5.3 270.9 5 C 271.5 4.7 272.2 4.5 272.9 4.5 C 273.7 4.5 274.5 4.7 275.1 5.1 C 275.7 5.4 276.1 6 276.4 6.6 C 276.7 7.2 276.8 8 276.8 9.1 C 276.76 9.12 276.8 16.7 276.8 16.7 L 273.6 16.7 C 273.6 16.7 273.61 9.93 273.6 9.9 C 273.6 8.7 273.5 8 273.3 7.6 C 273 7.2 272.5 7 271.9 7 C 271.5 7 271.1 7.1 270.7 7.4 C 270.3 7.6 270 8 269.8 8.6 C 269.7 9.1 269.6 9.9 269.6 11 C 269.59 11.02 269.6 16.7 269.6 16.7 L 266.4 16.7 C 266.4 16.7 266.43 10.21 266.4 10.2 C 266.4 9 266.4 8.3 266.3 8 C 266.1 7.6 266 7.4 265.7 7.2 C 265.5 7 265.2 7 264.8 7 C 264.3 7 263.9 7.1 263.5 7.4 C 263.1 7.6 262.8 8 262.6 8.5 C 262.5 9 262.4 9.8 262.4 10.9 C 262.38 10.95 262.4 16.7 262.4 16.7 L 259.2 16.7 L 259.2 4.8 Z M 291.2 12.9 C 291.2 12.9 294.3 13.5 294.3 13.5 C 293.9 14.6 293.3 15.5 292.4 16.1 C 291.5 16.7 290.5 17 289.1 17 C 287.1 17 285.5 16.3 284.5 15 C 283.7 13.9 283.4 12.5 283.4 10.9 C 283.4 8.9 283.9 7.3 284.9 6.2 C 285.9 5.1 287.2 4.5 288.8 4.5 C 290.6 4.5 292 5.1 293 6.3 C 294.1 7.5 294.5 9.3 294.5 11.7 C 294.5 11.7 286.6 11.7 286.6 11.7 C 286.6 12.6 286.9 13.4 287.4 13.9 C 287.8 14.4 288.4 14.7 289.2 14.7 C 289.7 14.7 290.1 14.5 290.4 14.3 C 290.8 14 291 13.5 291.2 12.9 Z M 291.4 9.8 C 291.3 8.8 291.1 8.2 290.7 7.7 C 290.2 7.2 289.7 7 289 7 C 288.3 7 287.8 7.2 287.3 7.7 C 286.9 8.2 286.6 8.9 286.6 9.8 C 286.6 9.8 291.4 9.8 291.4 9.8 Z M 312.3 16.7 L 309.1 16.7 C 309.1 16.7 309.13 10.66 309.1 10.7 C 309.1 9.4 309.1 8.5 308.9 8.2 C 308.8 7.8 308.6 7.5 308.3 7.3 C 308 7.1 307.6 7 307.2 7 C 306.6 7 306.1 7.1 305.7 7.4 C 305.3 7.7 305 8.1 304.8 8.6 C 304.7 9.1 304.6 10 304.6 11.3 C 304.57 11.34 304.6 16.7 304.6 16.7 L 301.4 16.7 L 301.4 4.8 L 304.3 4.8 C 304.3 4.8 304.35 6.57 304.3 6.6 C 305.4 5.2 306.7 4.5 308.3 4.5 C 309 4.5 309.6 4.7 310.2 4.9 C 310.8 5.2 311.2 5.5 311.5 5.9 C 311.8 6.3 312 6.7 312.1 7.2 C 312.2 7.7 312.3 8.4 312.3 9.3 C 312.29 9.33 312.3 16.7 312.3 16.7 Z M 325.3 4.8 L 325.3 7.3 L 323.2 7.3 C 323.2 7.3 323.17 12.14 323.2 12.1 C 323.2 13.1 323.2 13.7 323.2 13.8 C 323.3 14 323.4 14.1 323.5 14.2 C 323.7 14.3 323.8 14.4 324 14.4 C 324.3 14.4 324.8 14.3 325.3 14.1 C 325.3 14.1 325.6 16.5 325.6 16.5 C 324.9 16.9 324 17 323.1 17 C 322.5 17 322 16.9 321.6 16.7 C 321.1 16.5 320.8 16.3 320.5 16 C 320.3 15.7 320.2 15.3 320.1 14.8 C 320 14.4 320 13.6 320 12.5 C 320 12.53 320 7.3 320 7.3 L 318.6 7.3 L 318.6 4.8 L 320 4.8 L 320 2.4 L 323.2 0.6 L 323.2 4.8 L 325.3 4.8 Z M 345 8.5 C 345 8.5 342.1 7.9 342.1 7.9 C 342.5 6.8 343 5.9 343.8 5.4 C 344.6 4.8 345.8 4.5 347.3 4.5 C 348.7 4.5 349.8 4.7 350.5 5 C 351.1 5.4 351.6 5.8 351.9 6.3 C 352.2 6.8 352.3 7.8 352.3 9.1 C 352.3 9.1 352.3 12.8 352.3 12.8 C 352.3 13.9 352.3 14.6 352.4 15.1 C 352.5 15.6 352.7 16.2 353 16.7 C 353 16.7 349.9 16.7 349.9 16.7 C 349.8 16.5 349.7 16.2 349.6 15.8 C 349.5 15.6 349.5 15.5 349.5 15.4 C 348.9 16 348.4 16.4 347.7 16.6 C 347.1 16.9 346.5 17 345.8 17 C 344.6 17 343.6 16.7 342.9 16 C 342.2 15.3 341.8 14.5 341.8 13.5 C 341.8 12.8 342 12.2 342.3 11.7 C 342.6 11.2 343.1 10.8 343.7 10.5 C 344.2 10.2 345.1 9.9 346.2 9.7 C 347.6 9.5 348.7 9.2 349.2 9 C 349.2 9 349.2 8.6 349.2 8.6 C 349.2 8 349.1 7.6 348.8 7.4 C 348.5 7.1 347.9 7 347.1 7 C 346.5 7 346.1 7.1 345.8 7.3 C 345.5 7.5 345.2 7.9 345 8.5 Z M 349.2 11 C 348.8 11.2 348.2 11.3 347.3 11.5 C 346.4 11.7 345.9 11.9 345.6 12.1 C 345.2 12.3 345 12.7 345 13.2 C 345 13.6 345.1 14 345.5 14.3 C 345.8 14.6 346.2 14.8 346.7 14.8 C 347.3 14.8 347.8 14.6 348.4 14.2 C 348.7 13.9 349 13.6 349.1 13.2 C 349.2 12.9 349.2 12.4 349.2 11.6 C 349.2 11.6 349.2 11 349.2 11 Z M 370.7 16.7 L 367.5 16.7 C 367.5 16.7 367.5 10.66 367.5 10.7 C 367.5 9.4 367.4 8.5 367.3 8.2 C 367.2 7.8 366.9 7.5 366.6 7.3 C 366.3 7.1 366 7 365.5 7 C 365 7 364.5 7.1 364.1 7.4 C 363.6 7.7 363.3 8.1 363.2 8.6 C 363 9.1 362.9 10 362.9 11.3 C 362.94 11.34 362.9 16.7 362.9 16.7 L 359.8 16.7 L 359.8 4.8 L 362.7 4.8 C 362.7 4.8 362.72 6.57 362.7 6.6 C 363.8 5.2 365.1 4.5 366.6 4.5 C 367.3 4.5 368 4.7 368.6 4.9 C 369.1 5.2 369.6 5.5 369.9 5.9 C 370.2 6.3 370.4 6.7 370.5 7.2 C 370.6 7.7 370.7 8.4 370.7 9.3 C 370.66 9.33 370.7 16.7 370.7 16.7 Z M 389.2 16.7 L 386.2 16.7 C 386.2 16.7 386.24 14.99 386.2 15 C 385.7 15.7 385.2 16.2 384.5 16.5 C 383.8 16.8 383.2 17 382.5 17 C 381.1 17 380 16.5 379 15.4 C 378 14.3 377.5 12.7 377.5 10.7 C 377.5 8.7 378 7.2 378.9 6.1 C 379.9 5.1 381.1 4.5 382.6 4.5 C 383.9 4.5 385 5.1 386 6.2 C 386.01 6.21 386 0.3 386 0.3 L 389.2 0.3 L 389.2 16.7 Z M 380.7 10.5 C 380.7 11.8 380.9 12.7 381.3 13.3 C 381.8 14.1 382.5 14.5 383.4 14.5 C 384.1 14.5 384.7 14.2 385.3 13.6 C 385.8 13 386 12.1 386 10.8 C 386 9.5 385.8 8.5 385.3 7.9 C 384.8 7.3 384.2 7 383.4 7 C 382.6 7 382 7.3 381.5 7.9 C 381 8.5 380.7 9.3 380.7 10.5 Z M 406.3 13.3 C 406.3 13.3 409.5 12.9 409.5 12.9 C 409.6 13.5 409.9 13.9 410.3 14.3 C 410.7 14.6 411.3 14.7 412 14.7 C 412.8 14.7 413.4 14.6 413.9 14.3 C 414.1 14.1 414.3 13.8 414.3 13.4 C 414.3 13.2 414.2 13 414 12.8 C 413.9 12.7 413.5 12.6 413 12.4 C 410.4 11.9 408.8 11.4 408.1 10.9 C 407.2 10.2 406.7 9.4 406.7 8.2 C 406.7 7.2 407.1 6.3 408 5.6 C 408.8 4.9 410 4.5 411.8 4.5 C 413.4 4.5 414.6 4.8 415.4 5.3 C 416.2 5.9 416.7 6.7 417 7.7 C 417 7.7 414.1 8.3 414.1 8.3 C 413.9 7.8 413.7 7.4 413.3 7.2 C 413 6.9 412.5 6.8 411.8 6.8 C 411 6.8 410.4 6.9 410 7.2 C 409.8 7.3 409.7 7.5 409.7 7.8 C 409.7 8 409.8 8.2 410 8.4 C 410.3 8.6 411.2 8.9 412.9 9.3 C 414.6 9.6 415.8 10.1 416.4 10.7 C 417.1 11.2 417.4 12 417.4 13 C 417.4 14.1 417 15 416.1 15.8 C 415.2 16.6 413.8 17 412 17 C 410.4 17 409.1 16.7 408.2 16 C 407.2 15.4 406.6 14.5 406.3 13.3 Z M 423.8 10.6 C 423.8 9.6 424.1 8.6 424.6 7.6 C 425.1 6.6 425.9 5.8 426.8 5.3 C 427.8 4.8 428.8 4.5 430 4.5 C 431.8 4.5 433.3 5.1 434.4 6.3 C 435.6 7.5 436.1 9 436.1 10.7 C 436.1 12.6 435.6 14 434.4 15.2 C 433.2 16.4 431.8 17 430 17 C 428.9 17 427.9 16.8 426.9 16.3 C 425.9 15.8 425.1 15.1 424.6 14.1 C 424.1 13.1 423.8 12 423.8 10.6 Z M 427.1 10.8 C 427.1 12 427.4 12.9 427.9 13.5 C 428.5 14.1 429.2 14.4 430 14.4 C 430.8 14.4 431.5 14.1 432.1 13.5 C 432.6 12.9 432.9 12 432.9 10.8 C 432.9 9.6 432.6 8.7 432.1 8.1 C 431.5 7.4 430.8 7.1 430 7.1 C 429.2 7.1 428.5 7.4 427.9 8.1 C 427.4 8.7 427.1 9.6 427.1 10.8 Z M 453.5 4.8 L 456.4 4.8 C 456.4 4.8 456.42 6.45 456.4 6.4 C 457.5 5.2 458.7 4.5 460.1 4.5 C 460.9 4.5 461.6 4.7 462.1 5 C 462.7 5.3 463.1 5.8 463.5 6.4 C 464 5.8 464.6 5.3 465.2 5 C 465.8 4.7 466.5 4.5 467.1 4.5 C 468 4.5 468.8 4.7 469.4 5.1 C 470 5.4 470.4 6 470.7 6.6 C 470.9 7.2 471.1 8 471.1 9.1 C 471.05 9.12 471.1 16.7 471.1 16.7 L 467.9 16.7 C 467.9 16.7 467.9 9.93 467.9 9.9 C 467.9 8.7 467.8 8 467.6 7.6 C 467.3 7.2 466.8 7 466.2 7 C 465.8 7 465.4 7.1 465 7.4 C 464.6 7.6 464.3 8 464.1 8.6 C 464 9.1 463.9 9.9 463.9 11 C 463.88 11.02 463.9 16.7 463.9 16.7 L 460.7 16.7 C 460.7 16.7 460.72 10.21 460.7 10.2 C 460.7 9 460.7 8.3 460.6 8 C 460.4 7.6 460.3 7.4 460 7.2 C 459.8 7 459.5 7 459.1 7 C 458.6 7 458.1 7.1 457.8 7.4 C 457.4 7.6 457.1 8 456.9 8.5 C 456.8 9 456.7 9.8 456.7 10.9 C 456.67 10.95 456.7 16.7 456.7 16.7 L 453.5 16.7 L 453.5 4.8 Z M 486.4 16.7 C 486.4 16.7 486.42 14.96 486.4 15 C 486 15.6 485.4 16.1 484.7 16.5 C 484 16.8 483.3 17 482.5 17 C 481.7 17 480.9 16.8 480.3 16.5 C 479.7 16.1 479.2 15.6 478.9 15 C 478.6 14.4 478.5 13.5 478.5 12.4 C 478.5 12.36 478.5 4.8 478.5 4.8 L 481.7 4.8 C 481.7 4.8 481.66 10.3 481.7 10.3 C 481.7 12 481.7 13 481.8 13.4 C 481.9 13.8 482.2 14.1 482.5 14.3 C 482.8 14.5 483.2 14.6 483.6 14.6 C 484.2 14.6 484.7 14.5 485.1 14.2 C 485.5 13.9 485.8 13.5 486 13.1 C 486.1 12.6 486.2 11.6 486.2 9.8 C 486.19 9.85 486.2 4.8 486.2 4.8 L 489.4 4.8 L 489.4 16.7 L 486.4 16.7 Z M 507.4 8.3 C 507.4 8.3 504.3 8.9 504.3 8.9 C 504.2 8.3 503.9 7.8 503.6 7.5 C 503.2 7.2 502.7 7 502.1 7 C 501.3 7 500.7 7.3 500.2 7.8 C 499.8 8.4 499.5 9.3 499.5 10.6 C 499.5 12 499.8 13 500.3 13.6 C 500.7 14.2 501.4 14.4 502.2 14.4 C 502.8 14.4 503.3 14.3 503.6 13.9 C 504 13.6 504.3 13 504.4 12.2 C 504.4 12.2 507.5 12.7 507.5 12.7 C 507.2 14.1 506.6 15.2 505.7 15.9 C 504.8 16.7 503.6 17 502 17 C 500.3 17 498.9 16.5 497.8 15.4 C 496.8 14.3 496.3 12.7 496.3 10.8 C 496.3 8.8 496.8 7.3 497.9 6.2 C 498.9 5.1 500.3 4.5 502.1 4.5 C 503.5 4.5 504.7 4.9 505.5 5.5 C 506.4 6.1 507 7.1 507.4 8.3 Z M 517.3 0.3 C 517.3 0.3 517.29 6.33 517.3 6.3 C 518.3 5.1 519.5 4.5 520.9 4.5 C 521.7 4.5 522.3 4.7 522.9 5 C 523.5 5.2 523.9 5.6 524.2 6 C 524.5 6.4 524.7 6.9 524.8 7.4 C 524.9 7.9 525 8.7 525 9.7 C 525 9.75 525 16.7 525 16.7 L 521.8 16.7 C 521.8 16.7 521.84 10.44 521.8 10.4 C 521.8 9.2 521.8 8.4 521.7 8.1 C 521.5 7.7 521.3 7.5 521 7.3 C 520.7 7.1 520.3 7 519.9 7 C 519.4 7 518.9 7.1 518.5 7.3 C 518.1 7.6 517.8 8 517.6 8.5 C 517.4 9 517.3 9.8 517.3 10.8 C 517.29 10.77 517.3 16.7 517.3 16.7 L 514.1 16.7 L 514.1 0.3 L 517.3 0.3 Z M 543.1 4.8 L 546 4.8 C 546 4.8 546 6.45 546 6.4 C 547 5.2 548.3 4.5 549.7 4.5 C 550.5 4.5 551.1 4.7 551.7 5 C 552.3 5.3 552.7 5.8 553.1 6.4 C 553.6 5.8 554.2 5.3 554.8 5 C 555.4 4.7 556 4.5 556.7 4.5 C 557.6 4.5 558.3 4.7 559 5.1 C 559.6 5.4 560 6 560.3 6.6 C 560.5 7.2 560.6 8 560.6 9.1 C 560.64 9.12 560.6 16.7 560.6 16.7 L 557.5 16.7 C 557.5 16.7 557.48 9.93 557.5 9.9 C 557.5 8.7 557.4 8 557.2 7.6 C 556.9 7.2 556.4 7 555.8 7 C 555.4 7 554.9 7.1 554.6 7.4 C 554.2 7.6 553.9 8 553.7 8.6 C 553.5 9.1 553.5 9.9 553.5 11 C 553.46 11.02 553.5 16.7 553.5 16.7 L 550.3 16.7 C 550.3 16.7 550.3 10.21 550.3 10.2 C 550.3 9 550.2 8.3 550.1 8 C 550 7.6 549.8 7.4 549.6 7.2 C 549.4 7 549.1 7 548.7 7 C 548.2 7 547.7 7.1 547.3 7.4 C 546.9 7.6 546.7 8 546.5 8.5 C 546.3 9 546.2 9.8 546.2 10.9 C 546.25 10.95 546.2 16.7 546.2 16.7 L 543.1 16.7 L 543.1 4.8 Z M 567.4 10.6 C 567.4 9.6 567.7 8.6 568.2 7.6 C 568.7 6.6 569.4 5.8 570.4 5.3 C 571.3 4.8 572.4 4.5 573.6 4.5 C 575.4 4.5 576.8 5.1 578 6.3 C 579.2 7.5 579.7 9 579.7 10.7 C 579.7 12.6 579.1 14 578 15.2 C 576.8 16.4 575.4 17 573.6 17 C 572.5 17 571.5 16.8 570.5 16.3 C 569.5 15.8 568.7 15.1 568.2 14.1 C 567.7 13.1 567.4 12 567.4 10.6 Z M 570.7 10.8 C 570.7 12 570.9 12.9 571.5 13.5 C 572.1 14.1 572.8 14.4 573.6 14.4 C 574.4 14.4 575.1 14.1 575.6 13.5 C 576.2 12.9 576.5 12 576.5 10.8 C 576.5 9.6 576.2 8.7 575.6 8.1 C 575.1 7.4 574.4 7.1 573.6 7.1 C 572.8 7.1 572.1 7.4 571.5 8.1 C 570.9 8.7 570.7 9.6 570.7 10.8 Z M 589.6 16.7 L 586.4 16.7 L 586.4 4.8 L 589.4 4.8 C 589.4 4.8 589.37 6.51 589.4 6.5 C 589.9 5.7 590.3 5.2 590.7 4.9 C 591.1 4.7 591.6 4.5 592.1 4.5 C 592.8 4.5 593.5 4.7 594.2 5.1 C 594.2 5.1 593.2 7.9 593.2 7.9 C 592.7 7.6 592.2 7.4 591.7 7.4 C 591.3 7.4 590.9 7.5 590.6 7.7 C 590.3 8 590 8.4 589.9 9.1 C 589.7 9.7 589.6 11 589.6 13.1 C 589.59 13.06 589.6 16.7 589.6 16.7 Z M 606.8 12.9 C 606.8 12.9 609.9 13.5 609.9 13.5 C 609.5 14.6 608.9 15.5 608 16.1 C 607.2 16.7 606.1 17 604.8 17 C 602.7 17 601.1 16.3 600.1 15 C 599.4 13.9 599 12.5 599 10.9 C 599 8.9 599.5 7.3 600.5 6.2 C 601.6 5.1 602.9 4.5 604.4 4.5 C 606.2 4.5 607.6 5.1 608.6 6.3 C 609.7 7.5 610.2 9.3 610.1 11.7 C 610.1 11.7 602.2 11.7 602.2 11.7 C 602.2 12.6 602.5 13.4 603 13.9 C 603.5 14.4 604.1 14.7 604.8 14.7 C 605.3 14.7 605.7 14.5 606 14.3 C 606.4 14 606.6 13.5 606.8 12.9 Z M 607 9.8 C 607 8.8 606.7 8.2 606.3 7.7 C 605.8 7.2 605.3 7 604.6 7 C 603.9 7 603.4 7.2 602.9 7.7 C 602.5 8.2 602.3 8.9 602.3 9.8 C 602.3 9.8 607 9.8 607 9.8 Z " stroke="none" fill="#ffffff"/>  </g></svg>